<svg data-name="Layer 1" viewBox="0 0 508.33 508.36" xmlns="http://www.w3.org/2000/svg"><path d="M483.17 27.9c11.45 15.13 16.61 40.21 19.15 70.7 3.36 45.5 4.71 100.1 6 156.52-1.67 57.47-2.35 115.43-6 156.52-2.88 31.54-9 52.66-19.22 65.47-13 12.79-37.94 23.59-73.5 26.15-43.25 3.69-96.61 3.65-155.48 5.1-65.44-1.12-109.82-.64-156.38-5.08-36.32-2.52-60.08-13.19-74.7-26.07-10.83-14.54-14-30-17-66.24-3.75-41.85-4.58-98.56-6-155.54C2.17 198.75 2.3 141.62 6.07 98.92c2.53-33.69 6.52-56.34 16.75-70.74C37.17 15.95 61.65 9.87 98.17 6.87c50-5.85 102.06-7 155.88-6.87 55.39.09 108.56 1.67 156 6.34 32 2.56 58.48 8.07 73.07 21.56z" fill="#3b5999" fill-rule="evenodd"/><path d="M319.46 194.45h-47.53v-31.18c0-11.71 7.76-14.44 13.23-14.44h33.55V97.36l-46.21-.18c-51.29 0-63 38.39-63 63v34.31h-29.62v53h29.66v150.1h62.39v-150.1h42.1z" fill="#fff"/></svg>