<svg width="380" height="92" fill="none" xmlns="http://www.w3.org/2000/svg"><path d="M42.5 85C65.972 85 85 65.972 85 42.5S65.972 0 42.5 0 0 19.028 0 42.5 19.028 85 42.5 85z" fill="#32B18D"/><path d="M36.573 19.123C24.905 22.31 18.056 34.506 21.296 46.385 23.324 53.8 37.627 79.311 37.76 70.04c.131-9.285 6.163-6.73 10.536-7.916 11.669-3.187 18.517-15.382 15.277-27.262s-15.331-18.912-27-15.739z" fill="#fff"/><g clip-path="url(#clip0)" fill="#1C1D1E"><path d="M132.423 25.82v6.653h-12.381v19.185c0 1.4.362 2.383 1.068 3.04.734.677 1.725 1.03 3.021 1.03 1.887 0 3.555-.744 5.032-2.269l.982-1.01 2.659 6.547-.486.458c-2.412 2.23-5.509 3.336-9.255 3.336-2.935 0-5.365-.83-7.262-2.498-1.935-1.705-2.916-4.279-2.964-7.672V32.473h-6.7V25.82h6.691V13.03l7.214-2.04v14.83"/><path d="M134.977 25.82h5.489l.229.61 8.378 22.445 1.219 3.583 1.516-4.288 8.053-22.35h7.777l-16.249 41.468c-1.344 3.44-2.879 5.89-4.623 7.358-1.782 1.496-4.069 2.24-6.814 2.24-1.802 0-3.336-.248-4.585-.754-1.267-.514-2.42-1.324-3.44-2.43l-.419-.448 2.735-6.833.982 1.382c1.115 1.582 2.64 2.354 4.67 2.354a4.484 4.484 0 002.878-1.001c.848-.677 1.639-1.982 2.354-3.965l1.601-4.107-11.751-28.955V25.82z"/><path d="M354.344 51.858v10.255h-7.215V12.868l7.215-2.86V42.28l15.744-16.174.658-.276h8.94L365.59 40.307 380 62.113h-8.74l-10.884-16.45-6.032 6.195zm-24.923 10.941c-3.355 0-6.395-.686-9.111-2.059-2.774-1.4-4.823-3.488-6.119-6.252l-.343-.733 5.976-4.251.428 1.134c.677 1.801 1.84 3.136 3.517 4.031 1.735.934 3.793 1.401 6.195 1.401 2.459 0 4.298-.438 5.499-1.277 1.144-.79 1.668-1.715 1.668-2.85 0-.981-.467-1.743-1.487-2.382-1.172-.724-3.354-1.401-6.509-1.973-3.279-.61-5.89-1.353-7.834-2.23-2.03-.915-3.527-2.106-4.48-3.574-.953-1.468-1.429-3.269-1.429-5.375a9.9 9.9 0 011.772-5.71c1.173-1.705 2.841-3.059 4.995-4.069 2.134-1 4.584-1.496 7.348-1.496 3.726 0 6.757.715 9.082 2.163 2.354 1.468 4.041 3.727 5.052 6.73l.247.733-6.195 3.745-.362-1.115c-.648-2.01-1.61-3.412-2.868-4.24-1.287-.858-2.936-1.287-4.947-1.287s-3.688.457-5.051 1.362c-1.277.849-1.849 1.735-1.849 2.707 0 1.172.486 2.04 1.525 2.688 1.191.743 3.45 1.43 6.729 2.001 4.784.8 8.196 2.02 10.264 3.698 2.154 1.744 3.231 4.222 3.231 7.348 0 2.183-.639 4.137-1.897 5.843-1.248 1.677-3.011 2.983-5.28 3.917-2.268.915-4.851 1.372-7.767 1.372zm-28.068-28.516c-1.515-1.62-3.526-2.42-6.09-2.42-2.716 0-4.861.81-6.481 2.41-1.448 1.43-2.401 3.394-2.868 5.92h18.117c-.419-2.498-1.315-4.46-2.678-5.91zM288.782 53.45c1.763 1.745 4.041 2.621 6.881 2.621 2.316 0 4.213-.4 5.69-1.2 1.43-.763 2.373-1.84 2.869-3.26l.362-1.03 6.281 3.375-.477.857c-1.42 2.583-3.326 4.566-5.709 5.928-2.382 1.373-5.394 2.05-9.016 2.05-5.289 0-9.492-1.678-12.561-5.052-3.05-3.355-4.565-7.967-4.565-13.781 0-5.814 1.439-10.417 4.355-13.762 2.936-3.374 7.082-5.061 12.371-5.061 3.288 0 6.157.753 8.578 2.268 2.43 1.516 4.269 3.574 5.508 6.167 1.22 2.563 1.84 5.432 1.84 8.606 0 1.325-.096 2.659-.277 3.984l-.114.82h-24.989c.4 2.763 1.401 4.907 2.973 6.47zm-30.298 2.621c2.945 0 5.242-1.029 6.958-3.097 1.744-2.106 2.621-4.956 2.621-8.597v-.829c0-3.64-.877-6.49-2.621-8.596-1.716-2.069-4.013-3.098-6.958-3.098-2.983 0-5.28 1.058-6.976 3.193-1.725 2.173-2.602 5.137-2.602 8.92 0 3.784.877 6.739 2.602 8.921 1.696 2.126 3.993 3.183 6.976 3.183zm9.579-43.202l7.214-2.86v52.095h-6.49l-.229-4.031c-.896 1.077-1.992 2.001-3.278 2.773-2.173 1.306-4.651 1.954-7.396 1.954-4.947 0-8.911-1.706-11.837-5.099-2.907-3.374-4.346-7.967-4.346-13.733 0-5.767 1.439-10.36 4.346-13.734 2.926-3.403 6.9-5.099 11.837-5.099 2.611 0 4.956.59 7.043 1.773a13.118 13.118 0 013.136 2.44V12.867zm-39.162 21.415c-1.515-1.62-3.526-2.42-6.09-2.42-2.716 0-4.86.81-6.481 2.41-1.448 1.43-2.401 3.394-2.868 5.92h18.117c-.419-2.498-1.315-4.46-2.678-5.91zM216.33 53.45c1.763 1.745 4.041 2.621 6.881 2.621 2.316 0 4.213-.4 5.69-1.2 1.43-.763 2.373-1.84 2.869-3.26l.362-1.03 6.281 3.375-.477.857c-1.42 2.583-3.326 4.566-5.709 5.928-2.382 1.373-5.394 2.05-9.016 2.05-5.289 0-9.492-1.678-12.561-5.052-3.05-3.355-4.565-7.967-4.565-13.781 0-5.814 1.439-10.417 4.355-13.762 2.936-3.374 7.082-5.061 12.371-5.061 3.288 0 6.157.753 8.578 2.268 2.43 1.516 4.269 3.574 5.508 6.167 1.22 2.563 1.84 5.432 1.84 8.606 0 1.325-.095 2.659-.277 3.984l-.114.82h-24.989c.4 2.763 1.401 4.907 2.973 6.47zm-71.375 7.282l-.143.362.143.362v-.724zm54.42-30.499c-2.926-3.403-6.9-5.099-11.837-5.099-2.745 0-5.223.648-7.396 1.954-1.286.772-2.382 1.696-3.278 2.773l-.229-4.031h-6.49v50.722h7.215V58.586a13.735 13.735 0 003.135 2.44c2.078 1.182 4.432 1.773 7.043 1.773 4.947 0 8.911-1.706 11.837-5.099 2.907-3.374 4.346-7.967 4.346-13.733 0-5.767-1.439-10.36-4.346-13.734zm-5.47 22.654c-1.697 2.135-3.994 3.193-6.977 3.193-2.945 0-5.242-1.03-6.957-3.097-1.744-2.107-2.621-4.956-2.621-8.597v-.83c0-3.64.877-6.49 2.621-8.596 1.715-2.068 4.012-3.097 6.957-3.097 2.983 0 5.28 1.057 6.977 3.192 1.725 2.173 2.602 5.137 2.602 8.921s-.868 6.729-2.602 8.911z"/></g><defs><clipPath id="clip0"><path fill="#fff" transform="translate(101 10.009)" d="M0 0h279v81.582H0z"/></clipPath></defs></svg>